<?xml version="1.0" standalone="no"?>
<!DOCTYPE svg PUBLIC "-//W3C//DTD SVG 20010904//EN"
 "http://www.w3.org/TR/2001/REC-SVG-20010904/DTD/svg10.dtd">
<svg version="1.0" xmlns="http://www.w3.org/2000/svg"
 width="1024.000000pt" height="1024.000000pt" viewBox="0 0 1024.000000 1024.000000"
 preserveAspectRatio="xMidYMid meet">

<g transform="translate(0.000000,1024.000000) scale(0.100000,-0.100000)"
fill="#000000" stroke="none">
<path d="M3460 9030 c-123 -3 -182 -9 -200 -19 -46 -26 -114 -85 -175 -151
-32 -36 -132 -141 -220 -235 -144 -151 -390 -414 -515 -548 -25 -26 -50 -60
-57 -75 -9 -21 -12 -483 -12 -2002 -1 -1899 0 -1977 18 -2016 27 -59 75 -109
133 -138 l52 -26 2170 0 c2124 0 2172 1 2214 20 69 31 108 67 131 120 21 49
21 55 21 901 0 469 -2 854 -5 857 -2 3 -50 5 -106 6 l-102 1 -4 -800 c-2 -440
-6 -810 -9 -822 -2 -13 -16 -31 -31 -40 -26 -17 -136 -18 -2109 -17 -1571 1
-2087 5 -2103 14 -12 6 -31 26 -41 43 -20 31 -20 67 -20 1829 0 1118 4 1806
10 1822 21 57 30 58 393 60 366 1 367 1 441 66 20 18 47 52 59 74 21 40 22 54
27 423 5 382 5 383 28 405 l23 23 1623 3 1624 2 31 -26 c17 -14 37 -36 44 -48
9 -15 13 -157 17 -546 l5 -525 103 102 102 103 0 477 c0 537 2 518 -76 597
-51 51 -104 74 -201 86 -79 10 -2936 10 -3283 0z m-251 -655 c-1 -222 -7 -258
-48 -299 l-31 -31 -210 0 c-146 0 -213 4 -221 12 -9 9 20 45 122 152 74 78
166 178 206 224 40 45 91 99 115 120 64 58 69 44 67 -178z"/>
<path d="M7814 8352 c-69 -24 -136 -69 -280 -184 -113 -91 -174 -149 -174
-167 0 -4 50 -50 112 -102 126 -106 254 -217 375 -327 l81 -73 -43 -47 -43
-46 -49 43 c-26 24 -100 94 -163 155 -171 166 -282 266 -311 281 -25 13 -29
11 -90 -40 -35 -29 -96 -86 -134 -127 -109 -114 -329 -349 -465 -498 -68 -74
-149 -162 -180 -195 -95 -100 -191 -206 -275 -300 -44 -50 -82 -92 -85 -95 -3
-3 -45 -50 -95 -105 -49 -55 -132 -144 -182 -198 -97 -102 -106 -123 -84 -179
5 -13 113 -121 239 -242 l230 -219 -34 -29 c-26 -23 -40 -29 -60 -24 -28 7
-166 131 -317 283 l-97 99 -270 -271 c-391 -393 -421 -430 -559 -693 -123
-234 -173 -347 -220 -500 -29 -92 -61 -228 -61 -257 0 -29 40 -24 151 18 123
47 524 249 649 327 250 156 288 192 580 545 19 23 82 95 140 160 58 65 133
151 168 191 35 41 68 72 73 69 17 -11 49 6 63 33 8 15 83 97 168 182 152 155
448 464 563 590 33 36 112 119 175 185 124 129 395 441 476 548 27 37 53 66
58 67 14 0 76 -50 76 -61 0 -15 -209 -342 -308 -480 -127 -180 -345 -394 -580
-573 -68 -52 -99 -100 -109 -171 l-6 -45 44 0 c33 0 61 10 110 39 151 88 382
268 518 402 147 146 370 448 496 670 119 211 115 201 115 264 l0 59 -74 72
-73 73 42 51 c58 71 128 199 161 295 21 60 29 106 32 182 4 93 2 106 -22 159
-42 91 -87 138 -172 180 -93 46 -197 56 -280 26z m184 -181 c10 -6 -7 -27 -60
-77 -40 -38 -99 -94 -130 -124 l-57 -55 -48 38 c-26 21 -49 42 -50 45 -2 10
152 145 189 165 34 18 132 23 156 8z m-625 -598 c20 -16 36 -31 37 -34 0 -3
-21 -21 -46 -40 -47 -35 -319 -314 -481 -494 -329 -363 -490 -542 -572 -634
-188 -212 -252 -275 -262 -260 -5 8 -9 17 -9 22 0 4 -18 24 -39 45 l-40 38
227 240 c125 132 290 310 367 395 77 85 142 156 145 159 3 3 41 46 85 95 119
136 229 258 344 383 l103 112 53 0 c41 0 59 -6 88 -27z m-1732 -2023 c-54 -58
-122 -132 -151 -165 -30 -33 -81 -88 -114 -122 l-60 -63 -33 32 c-18 18 -33
36 -33 41 0 12 39 54 259 286 l165 173 32 -38 32 -38 -97 -106z m-442 -540
c38 -33 72 -64 75 -69 4 -5 -42 -47 -101 -93 -60 -45 -155 -122 -212 -170 -58
-48 -106 -86 -108 -85 -3 4 29 68 121 237 87 159 137 240 147 240 5 0 40 -27
78 -60z"/>
<path d="M3113 7330 c-73 -29 -71 -152 3 -180 32 -13 2621 -13 2684 -1 51 10
80 40 80 83 0 38 -27 83 -57 97 -30 14 -2677 14 -2710 1z"/>
<path d="M3088 6551 c-44 -39 -46 -98 -5 -138 l27 -28 1098 0 c1198 0 1138 -3
1171 57 29 51 -14 110 -95 128 -22 6 -500 10 -1101 10 l-1063 0 -32 -29z"/>
<path d="M3142 5816 c-78 -28 -105 -94 -58 -141 18 -17 39 -25 87 -29 35 -4
462 -7 949 -9 972 -2 929 -5 959 58 13 26 12 33 -5 65 -40 74 18 70 -994 69
-681 0 -913 -4 -938 -13z"/>
<path d="M3101 5094 c-60 -42 -59 -137 2 -174 31 -19 55 -20 577 -20 614 0
601 -1 628 72 17 44 4 79 -41 112 -28 21 -38 21 -585 24 -505 2 -559 1 -581
-14z"/>
<path d="M3515 3460 c-426 -90 -757 -357 -908 -732 -65 -159 -81 -251 -81
-448 0 -192 14 -274 76 -429 200 -505 737 -775 1342 -675 149 25 384 110 538
194 91 49 132 127 197 373 12 42 21 82 21 87 0 6 -20 20 -45 32 l-46 22 -55
-61 c-111 -125 -258 -212 -439 -259 -129 -34 -350 -39 -455 -10 -242 66 -412
243 -482 500 -37 138 -34 391 7 551 21 81 76 194 131 272 158 221 439 310 736
234 194 -50 287 -146 373 -385 50 -137 91 -175 133 -121 29 37 44 145 46 324
1 152 -20 418 -34 434 -4 4 -33 -3 -65 -17 -68 -31 -103 -32 -153 -7 -59 30
-230 89 -322 112 -125 31 -391 36 -515 9z"/>
<path d="M4785 3393 c-63 -16 -60 -54 9 -98 75 -48 127 -111 184 -223 48 -94
74 -154 235 -552 68 -167 129 -315 412 -1010 103 -253 119 -286 144 -300 12
-6 115 -10 264 -10 237 0 245 1 278 23 43 28 45 33 285 577 325 736 534 1201
559 1240 13 21 52 71 86 111 57 69 84 95 203 192 25 21 46 42 46 47 0 16 -793
13 -808 -2 -23 -23 -12 -54 38 -103 54 -53 75 -104 64 -152 -7 -30 -87 -222
-374 -892 -189 -443 -225 -521 -238 -521 -5 0 -112 262 -240 583 -311 782
-322 812 -322 842 0 37 20 81 74 159 37 54 44 71 35 82 -9 12 -89 14 -463 13
-248 -1 -460 -4 -471 -6z"/>
<path d="M7450 2880 c-18 -45 -31 -82 -29 -83 2 -1 18 -12 35 -24 55 -38 316
-195 319 -191 2 2 14 40 28 86 l26 83 -47 34 c-26 19 -92 57 -147 86 -55 29
-112 60 -126 70 l-27 19 -32 -80z"/>
<path d="M8224 2647 c-27 -34 -139 -152 -249 -263 -171 -172 -217 -213 -320
-280 -66 -43 -164 -99 -218 -124 -71 -33 -95 -49 -91 -60 9 -26 68 -120 95
-153 26 -31 27 -32 65 -18 57 20 222 132 316 215 181 159 273 274 367 462 119
236 138 353 35 221z"/>
<path d="M7337 2575 l-24 -75 76 -58 c42 -31 119 -81 171 -109 l95 -53 31 82
31 82 -61 40 c-76 50 -277 166 -287 166 -4 0 -18 -34 -32 -75z"/>
</g>
</svg>
